<svg xmlns="http://www.w3.org/2000/svg" width="39.856" height="45.575" viewBox="0 0 39.856 45.575">
  <path id="Path_4282" data-name="Path 4282" d="M879.113,2333.9l-1.481-.221c3.477-3.8,3.528-8.426,3.767-13.112a27.927,27.927,0,0,1,1.78-8.729c1.488-3.762,4.678-5.605,8.809-5.589,4.05.015,7.171,1.876,8.647,5.525,1.1,2.717,1.383,5.784,1.851,8.725.273,1.713.1,3.491.3,5.223a12.005,12.005,0,0,0,3.451,7.838l-2.045.167c4.946,2.869,7.708,6.788,7.621,12.393-.057,3.631-1.7,5.513-5.353,5.606-5.8.149-11.612.047-17.419.052-3.708,0-7.419.111-11.122-.012-4.433-.147-6.292-2.381-5.911-6.793C872.4,2340.382,874.175,2337.565,879.113,2333.9Zm4.185-12.008a13.262,13.262,0,0,0,4.214,8.646,6.33,6.33,0,0,0,8.76.039c3.256-2.874,4.254-6.687,4.434-10.936L898,2319.17c-.089-1.4-.168-2.629-.23-3.6Zm13.553,10.1c-3.461,2.536-6.763,2.3-10.264-.229l.973,2.639-2.823-.354-.384.661a11.332,11.332,0,0,1,7.434,6.971c.508-.736.768-1.053.964-1.405,1.12-2.024,2.3-3.884,4.788-4.592.9-.255,1.552-1.355,2.318-2.07l-.289-.42h-2.775C896.813,2332.778,896.828,2332.478,896.851,2332Z" transform="translate(-871.953 -2306.248)" fill="#42210b"/>
</svg>
