<svg xmlns="http://www.w3.org/2000/svg" width="41" height="45.576" viewBox="0 0 41 45.576">
  <g id="Group_3705" data-name="Group 3705" transform="translate(-750.208 -2306.282)">
    <path id="Path_4280" data-name="Path 4280" d="M762.246,2365.561c2.454,6,15.232,5.407,16.933.044,6.241-.173,14,7.272,11.574,16.043a6.807,6.807,0,0,1-3.23,3.517,10.757,10.757,0,0,1-4.868.989c-7.838.1-15.678.068-23.517.049-8.522-.021-10.467-5.117-7.846-12.442A12.566,12.566,0,0,1,762.246,2365.561Z" transform="translate(0 -34.364)" fill="#42210b"/>
    <path id="Path_4281" data-name="Path 4281" d="M795.155,2317.8a18.055,18.055,0,0,1-3.817,10.955c-3.833,4.6-9.326,4.6-13.078-.074a17.227,17.227,0,0,1-3.574-13.606,10.221,10.221,0,0,1,11.225-8.751C791.14,2306.782,795.194,2311.569,795.155,2317.8Zm-18.845,2.045a11.957,11.957,0,0,0,3.833,8.808,6.579,6.579,0,0,0,9.136.2,13.1,13.1,0,0,0,4.291-8.4c.045-.3-.042-.9-.124-.908-1.572-.192-.734-1.361-.849-2.1-.128-.823-.049-1.679-.183-2.5-.239-1.472-.81-2.248-2.56-1.522a13.08,13.08,0,0,1-9.036.387c-3.159-.961-3.744-.479-3.757,2.953a4.871,4.871,0,0,1,.011,1.252A15.473,15.473,0,0,1,776.31,2319.847Z" transform="translate(-14.072)" fill="#42210b"/>
  </g>
</svg>
