<svg xmlns="http://www.w3.org/2000/svg" width="32" height="42.07" viewBox="0 0 32 42.07"><g transform="translate(-814.501 -1451.131)"><path d="M846.461,1463.085c.005.949.015,1.9.015,2.846q0,11.989,0,23.978a3.32,3.32,0,0,1-3.508,3.492H818a3.324,3.324,0,0,1-3.5-3.5q0-17.518,0-35.037a3.313,3.313,0,0,1,3.49-3.507H834.2c.182,0,.364.011.546.017.005,2.916,0,5.831.02,8.747a2.739,2.739,0,0,0,3,2.955Zm-16.821,16.958h7.883c1.181,0,1.157,0,1.19-1.19.014-.52-.13-.685-.669-.683-5.4.019-10.8.012-16.2.012-1.21,0-1.187,0-1.217,1.217-.012.5.123.66.641.656C824.056,1480.03,826.848,1480.043,829.64,1480.043Zm-2.327-9.436c0,1.092.011,2.185-.006,3.277-.006.357.111.484.47.471.673-.024,1.348.009,2.021-.016a3.171,3.171,0,0,0,3.179-2.482,5.444,5.444,0,0,0,.122-1.79,3.122,3.122,0,0,0-2.83-3.089,21.467,21.467,0,0,0-2.452-.08c-.43-.028-.519.154-.511.542C827.328,1468.495,827.313,1469.551,827.313,1470.607Zm.41,11.516h-5.912c-1.18,0-1.156,0-1.189,1.191-.015.52.131.685.669.683,4.069-.022,8.139-.012,12.208-.012,1.27,0,1.253,0,1.269-1.273.006-.447-.119-.6-.585-.6C832.03,1482.135,829.877,1482.123,827.724,1482.123Zm-7.194-11.5c0,.839-.014,1.678,0,2.516.028,1.418-.3,1.174,1.256,1.211.327.008.405-.134.4-.425-.013-.547.011-1.094-.009-1.641-.013-.361.128-.486.482-.463a4.856,4.856,0,0,0,1.411-.109,2.382,2.382,0,0,0,1.925-2.5,2.153,2.153,0,0,0-1.983-2.219,22.073,22.073,0,0,0-3.164-.1c-.332-.014-.322.211-.321.441C820.531,1468.439,820.53,1469.533,820.53,1470.627Zm14.011-.005v2.569c0,1.235,0,1.224,1.247,1.166.318-.015.406-.135.4-.43-.014-.619.035-1.242-.016-1.857-.045-.539.175-.659.654-.627s.984,0,1.475.01c.3.007.413-.113.406-.421-.026-1.17.124-.963-.926-.985-.109,0-.219,0-.328,0-1.521-.035-1.229.267-1.275-1.3-.01-.354.141-.433.455-.424.6.016,1.2,0,1.8,0,.7,0,.7,0,.7-.721a1.876,1.876,0,0,1,0-.219c.041-.342-.078-.491-.452-.485-1.239.019-2.478.017-3.717,0-.339,0-.442.115-.437.445C834.55,1468.435,834.541,1469.528,834.54,1470.622Zm-9.585,15.334H821.78c-1.268,0-1.25,0-1.266,1.276-.006.452.128.6.589.594,2.28-.021,4.561-.009,6.842-.009,1.374,0,1.362,0,1.346-1.359,0-.377-.12-.515-.505-.51C827.51,1485.967,826.232,1485.955,824.955,1485.955Z" transform="translate(0 -0.2)" fill="#de0000"/><path d="M1011.013,1462.885l-8.693-.009a2.738,2.738,0,0,1-3-2.955c-.022-2.915-.015-5.831-.02-8.746a2.331,2.331,0,0,1,2.246.837q4.252,4.377,8.635,8.628A2.346,2.346,0,0,1,1011.013,1462.885Z" transform="translate(-164.552 0)" fill="#fe797d"/><path d="M879.4,1698.018c-2.792,0-5.584-.013-8.376.012-.518,0-.654-.157-.641-.656.03-1.217.007-1.217,1.217-1.217,5.4,0,10.8.007,16.2-.012.539,0,.683.163.669.683-.033,1.189-.009,1.19-1.19,1.19Z" transform="translate(-49.755 -218.175)" fill="#fefefe"/><path d="M931.4,1596.922c0-1.056.014-2.112-.008-3.168-.008-.388.08-.57.511-.542a21.466,21.466,0,0,1,2.452.08,3.122,3.122,0,0,1,2.83,3.09,5.442,5.442,0,0,1-.122,1.79,3.171,3.171,0,0,1-3.179,2.482c-.673.026-1.348-.007-2.021.016-.359.013-.476-.114-.47-.471C931.409,1599.107,931.4,1598.014,931.4,1596.922Zm1.673.014c0,.637.012,1.275,0,1.912-.009.336.128.447.454.441a1.784,1.784,0,0,0,1.876-1.49,4.208,4.208,0,0,0,.07-1.357,1.815,1.815,0,0,0-1.808-1.874c-.415-.049-.615.049-.594.511C933.091,1595.7,933.07,1596.317,933.07,1596.936Z" transform="translate(-104.084 -126.514)" fill="#fefefe"/><path d="M877.474,1732.156c2.153,0,4.307.012,6.46-.01.466,0,.591.151.585.6-.016,1.273,0,1.273-1.269,1.273-4.069,0-8.139-.01-12.208.012-.538,0-.684-.162-.669-.683.033-1.19.009-1.19,1.189-1.19Z" transform="translate(-49.751 -250.232)" fill="#fefefe"/><path d="M869.478,1596.952c0-1.094,0-2.188,0-3.282,0-.231-.011-.455.321-.441a22.035,22.035,0,0,1,3.164.1,2.153,2.153,0,0,1,1.983,2.219,2.382,2.382,0,0,1-1.925,2.5,4.86,4.86,0,0,1-1.411.109c-.355-.023-.5.1-.482.463.02.546,0,1.094.009,1.641.007.291-.071.432-.4.425-1.552-.037-1.228.207-1.256-1.211C869.465,1598.63,869.478,1597.791,869.478,1596.952Zm2.359-2.431c-.6-.113-.743.183-.7.712.031.379.007.763.006,1.145,0,.189,0,.4.246.414a2.481,2.481,0,0,0,1.387-.156,1.087,1.087,0,0,0,.524-1.213.85.85,0,0,0-.766-.8C872.3,1594.586,872.069,1594.556,871.837,1594.521Z" transform="translate(-48.948 -126.524)" fill="#fefefe"/><path d="M997.394,1596.956c0-1.093.01-2.187-.006-3.28,0-.329.1-.449.437-.445,1.239.016,2.478.018,3.717,0,.374-.006.493.143.452.485a1.863,1.863,0,0,0,0,.219c0,.721,0,.721-.7.721-.6,0-1.2.012-1.8,0-.314-.009-.466.07-.455.424.046,1.572-.246,1.27,1.275,1.3.109,0,.219,0,.328,0,1.05.022.9-.185.926.985.007.308-.1.428-.406.421-.492-.011-.986.023-1.475-.01s-.7.088-.654.627c.052.615,0,1.238.016,1.857.007.295-.082.415-.4.43-1.247.058-1.247.069-1.247-1.166Q997.393,1598.24,997.394,1596.956Z" transform="translate(-162.853 -126.534)" fill="#fefefe"/><path d="M873.835,1767.166c1.277,0,2.555.011,3.831-.007.385-.005.5.132.505.51.015,1.359.028,1.359-1.346,1.359-2.281,0-4.562-.011-6.842.01-.461,0-.6-.142-.589-.595.016-1.276,0-1.276,1.266-1.276Z" transform="translate(-48.88 -281.41)" fill="#fefefe"/><path d="M946.663,1607.894c0-.619.021-1.239-.007-1.857-.021-.462.179-.56.594-.511a1.815,1.815,0,0,1,1.808,1.874,4.211,4.211,0,0,1-.07,1.357,1.784,1.784,0,0,1-1.876,1.49c-.326.006-.462-.1-.453-.441C946.675,1609.169,946.663,1608.531,946.663,1607.894Z" transform="translate(-117.677 -137.472)" fill="#de0000"/><path d="M885.324,1604.9c.232.035.466.065.7.106a.85.85,0,0,1,.766.8,1.087,1.087,0,0,1-.524,1.213,2.481,2.481,0,0,1-1.388.156c-.242-.018-.246-.225-.246-.414,0-.382.025-.765-.006-1.145C884.581,1605.087,884.726,1604.791,885.324,1604.9Z" transform="translate(-62.435 -136.907)" fill="#de0000"/></g></svg>