<svg id="Group_3698" data-name="Group 3698" xmlns="http://www.w3.org/2000/svg" width="46.031" height="50.075" viewBox="0 0 46.031 50.075">
  <path id="Path_4243" data-name="Path 4243" d="M251.167,269.437V258.511c-1.128-.4-2.838-.594-2.955-1.132a13.54,13.54,0,0,1-.037-5.319c.11-.57,1.717-.773,2.525-1.314.74-.5,1.733-1.122,1.914-1.863,1.4-5.688,5.026-9.28,10.354-11.233,1.48-.542,2.266-1.127,2.029-2.779-.327-2.281.49-3.552,3.308-2.841.07-1.465.055-2.683.216-3.877.084-.625.438-1.706.737-1.73a56.712,56.712,0,0,1,6.318-.073c.241.008.73.813.631,1.012a1.725,1.725,0,0,1-1.122.907c-1.385.111-2.784.042-4.319.042v3.543c3.25-.645,3.556,1.227,3.442,3.67a2.343,2.343,0,0,0,1.258,1.773c5.749,2.132,9.782,5.739,11.118,11.986.132.618,1.232,1.216,2,1.476,2.8.95,2.927,1.3,2.66,5.642-.146,2.388-2.013,1.376-3.265,1.95v10.856c.154.113.269.271.4.282,3.983.326,4.828,1.388,3.93,5.4a2.518,2.518,0,0,1-1.911,1.424c-13.869.076-27.739.036-41.608.061-1.533,0-2.027-.654-2.108-2.1C246.436,269.9,246.5,269.786,251.167,269.437Zm-.759-13.7h38.318c.672-1.87,0-2.666-1.733-3.116-5.226-1.352-10.4-2.9-15.628-4.243a7.588,7.588,0,0,0-3.625,0c-5.227,1.344-10.4,2.893-15.624,4.25C250.372,253.086,249.72,253.894,250.408,255.741ZM284,249.523c-.007-4.856-5.906-10.671-14.05-10.881-7.427-.192-14.087,4.55-14.863,10.884,3.925-1.074,7.761-2.014,11.521-3.2a9.143,9.143,0,0,1,5.689-.052C276.147,247.45,280.051,248.439,284,249.523Zm-34.788,22.3c-.656,1.889-.014,2.39,1.552,2.385,12.514-.038,25.029-.015,37.543-.086.627,0,1.25-.705,1.875-1.082-.655-.407-1.306-1.164-1.964-1.17-9.541-.075-19.083-.049-28.625-.047Zm8.848-2.355V258.3h-4.385v11.17Zm13.655-.021V258.28h-4.346v11.166Zm9.3-.015h4.435V258.314h-4.435Zm-16.184.047v-11.2h-4.311v11.2Zm13.729.087v-11.3h-4.295v11.183c.581.046,1.032.1,1.483.112C276.6,269.577,277.448,269.565,278.567,269.565Zm-6.934-33c.226-2.687-.663-3.026-4.441-2.043C267.486,237.935,270.038,235.8,271.633,236.565Z" transform="translate(-246.604 -226.3)"/>
  <path id="Path_4244" data-name="Path 4244" d="M253.634,275.691c-.689-1.847-.036-2.656,1.708-3.109,5.223-1.357,10.4-2.906,15.624-4.25a7.588,7.588,0,0,1,3.625,0c5.228,1.342,10.4,2.891,15.628,4.243,1.738.45,2.406,1.246,1.733,3.116Z" transform="translate(-249.829 -246.249)" fill="#05661a"/>
  <path id="Path_4245" data-name="Path 4245" d="M291.746,260.779c-3.952-1.084-7.855-2.073-11.7-3.247a9.143,9.143,0,0,0-5.689.052c-3.76,1.183-7.6,2.123-11.521,3.2.776-6.334,7.437-11.076,14.863-10.884C285.84,250.109,291.739,255.924,291.746,260.779Z" transform="translate(-254.347 -237.556)" fill="#d00024"/>
  <path id="Path_4246" data-name="Path 4246" d="M251.365,313.353h10.382c9.542,0,19.084-.028,28.625.047.658.005,1.309.762,1.964,1.17-.625.376-1.248,1.078-1.875,1.082-12.514.071-25.028.049-37.543.086C251.351,315.742,250.71,315.242,251.365,313.353Z" transform="translate(-248.754 -267.83)" fill="#fff"/>
  <path id="Path_4247" data-name="Path 4247" d="M264.518,298.662h-4.384v-11.17h4.384Z" transform="translate(-253.059 -255.495)" fill="#fff"/>
  <path id="Path_4248" data-name="Path 4248" d="M290.669,298.625h-4.346V287.459h4.346Z" transform="translate(-265.554 -255.479)" fill="#fff"/>
  <path id="Path_4249" data-name="Path 4249" d="M312.425,298.642V287.525h4.435v11.117Z" transform="translate(-278.007 -255.51)" fill="#fff"/>
  <path id="Path_4250" data-name="Path 4250" d="M277.542,298.66h-4.311v-11.2h4.311Z" transform="translate(-259.308 -255.481)" fill="#fff"/>
  <path id="Path_4251" data-name="Path 4251" d="M303.813,298.731c-1.119,0-1.966.012-2.812,0-.451-.008-.9-.066-1.483-.112V287.431h4.295Z" transform="translate(-271.849 -255.466)" fill="#fff"/>
  <path id="Path_4252" data-name="Path 4252" d="M290.417,243.608c-1.594-.764-4.147,1.369-4.441-2.043C289.754,240.582,290.644,240.921,290.417,243.608Z" transform="translate(-265.388 -233.342)" fill="#fff"/>
</svg>
