<svg xmlns="http://www.w3.org/2000/svg" width="72.857" height="46.055" viewBox="0 0 72.857 46.055">
  <g id="Group_3704" data-name="Group 3704" transform="translate(-668.119 -245.616)">
    <path id="Path_4277" data-name="Path 4277" d="M702.971,288.481v-17.8c-3.322-.387-6.287-.782-9.209,1.545-3.763,3-7,3.194-12.749,1.79l.215.88c-1.7.542-3.387,1.516-5.1,1.552-7.96.165-7.961.072-7.957-7.787,0-5.313.123-10.629-.05-15.936-.091-2.8,1-3.817,3.666-3.523,2.843.314,5.688.617,8.539.835a5.414,5.414,0,0,0,2.094-.4,29.871,29.871,0,0,0,4.656-1.794c5.651-3.1,11.113-3.05,16.42.717,7.586,5.385,16.176,5.714,25.039,5.374,8-.307,7.977-.064,7.95,7.8-.031,8.838-.007,17.676-.007,26.676a9.141,9.141,0,0,1,2.252.414,16.318,16.318,0,0,1,2.244,1.553c-.932.43-1.862,1.23-2.8,1.235q-18.282.121-36.563-.019c-.974-.008-1.94-.923-2.91-1.416.919-.474,1.824-.978,2.763-1.408A7.534,7.534,0,0,1,702.971,288.481Zm2.766-29.521.7.834c3.64.248,8.224-.863,8.739,4.62.639,6.8-4.769,5.9-8.805,6.079v17.966h27.009V256.751c-8.716,0-17.225-.048-25.731.1C707,256.857,706.373,258.223,705.737,258.96Zm.273-5.357c-6.411-5.183-12.833-6.538-19.833-2.243-1.132.694-2.672.757-3.738,1.514a4.671,4.671,0,0,0-2,2.848c-.253,3.525-.129,7.077-.122,10.618.009,4.328,1.315,5.711,5.716,5.518,1.707-.075,3.906-.341,4.977-1.419,3.491-3.51,7.714-2.979,11.927-2.963,2.082.008,4.165-.042,6.247-.009,1.7.027,3.2-.1,3.13-2.385s-1.673-2.276-3.305-2.272a105.706,105.706,0,0,1-11.549-.126,6.045,6.045,0,0,1-4.195-2.912c-.579-1.258.287-3.286.811-4.878.14-.424,1.361-.492,2.086-.722.119.729.508,1.542.311,2.173-.946,3.032-.732,3.443,2.307,3.5,1.4.028,2.8,0,4.021,0C703.613,257.221,701.692,253.92,706.01,253.6Zm-28.788-1.183h-5.836v20.9h5.836Z" transform="translate(0 0)"/>
    <path id="Path_4278" data-name="Path 4278" d="M733.161,267.072c.636-.737,1.261-2.1,1.91-2.114,8.505-.143,17.015-.1,25.731-.1v31.708H733.793V278.6c4.036-.18,9.444.724,8.8-6.079-.515-5.483-5.1-4.372-8.739-4.62ZM745.8,286.907a32.992,32.992,0,0,0-2.883-3.745,7.938,7.938,0,0,0-2.475-1.11c.023.907-.265,1.994.132,2.687.925,1.614,2.215,3.014,3.292,4.546,1.232,1.752,2.369,1.655,3.714.084,2.912-3.4,5.968-6.678,8.8-10.14.626-.765.579-2.082.842-3.145-1.018.431-2.309.6-3.007,1.339C751.378,280.42,748.717,283.589,745.8,286.907Z" transform="translate(-27.424 -8.112)" fill="#05661a"/>
    <path id="Path_4279" data-name="Path 4279" d="M751.055,295.093c2.914-3.317,5.575-6.487,8.417-9.483.7-.736,1.988-.908,3.007-1.339-.263,1.063-.216,2.38-.842,3.145-2.835,3.461-5.89,6.741-8.8,10.14-1.345,1.571-2.482,1.667-3.714-.084-1.078-1.532-2.367-2.933-3.292-4.546-.4-.693-.109-1.78-.132-2.687a7.939,7.939,0,0,1,2.475,1.11A33,33,0,0,1,751.055,295.093Z" transform="translate(-32.676 -16.298)" fill="#f7a21e"/>
  </g>
</svg>
